<?xml version="1.0" encoding="UTF-8" standalone="no"?>
<!-- Created with Inkscape (http://www.inkscape.org/) -->

<svg
   xmlns:dc="http://purl.org/dc/elements/1.1/"
   xmlns:cc="http://creativecommons.org/ns#"
   xmlns:rdf="http://www.w3.org/1999/02/22-rdf-syntax-ns#"
   xmlns:svg="http://www.w3.org/2000/svg"
   xmlns="http://www.w3.org/2000/svg"
   xmlns:sodipodi="http://sodipodi.sourceforge.net/DTD/sodipodi-0.dtd"
   xmlns:inkscape="http://www.inkscape.org/namespaces/inkscape"
   width="362.71014mm"
   height="351.31311mm"
   viewBox="0 0 1285.1934 1244.8102"
   id="svg2"
   version="1.1"
   inkscape:version="0.91 r13725"
   sodipodi:docname="shrine.svg">
  <defs
     id="defs4" />
  <sodipodi:namedview
     id="base"
     pagecolor="#ffffff"
     bordercolor="#666666"
     borderopacity="1.0"
     inkscape:pageopacity="0.0"
     inkscape:pageshadow="2"
     inkscape:zoom="0.25"
     inkscape:cx="744.00771"
     inkscape:cy="529.70693"
     inkscape:document-units="px"
     inkscape:current-layer="layer1"
     showgrid="false"
     inkscape:window-width="1920"
     inkscape:window-height="1016"
     inkscape:window-x="0"
     inkscape:window-y="27"
     inkscape:window-maximized="1"
     fit-margin-top="0"
     fit-margin-left="0"
     fit-margin-right="0"
     fit-margin-bottom="0" />
  <metadata
     id="metadata7">
    <rdf:RDF>
      <cc:Work
         rdf:about="">
        <dc:format>image/svg+xml</dc:format>
        <dc:type
           rdf:resource="http://purl.org/dc/dcmitype/StillImage" />
        <dc:title></dc:title>
      </cc:Work>
    </rdf:RDF>
  </metadata>
  <g
     inkscape:label="Layer 1"
     inkscape:groupmode="layer"
     id="layer1"
     transform="translate(281.25629,323.82795)">
    <path
       style="opacity:1;fill:#fff6d5;fill-opacity:1;stroke:none;stroke-width:0;stroke-miterlimit:4;stroke-dasharray:none;stroke-dashoffset:0;stroke-opacity:1"
       d="m -233.70644,79.671623 -43.69545,97.862097 c -7.71769,17.28485 -3.54728,69.52494 9.84024,72.00247 L 24.463074,303.57924 C 37.85057,306.05677 53.28213,301.20137 61.90138,284.34797 L 83.58786,241.944 c 8.61925,-16.85339 3.37347,-32.05287 -6.32187,-41.61133 l -220.96136,-217.8417 c -9.69535,-9.55845 -82.29338,79.895813 -90.01107,97.180653 z"
       id="rect4964-3-2"
       inkscape:connector-curvature="0"
       sodipodi:nodetypes="sssssssss" />
    <path
       style="opacity:1;fill:#fff6d5;fill-opacity:1;stroke:none;stroke-width:0;stroke-miterlimit:4;stroke-dasharray:none;stroke-dashoffset:0;stroke-opacity:1"
       d="m 845.37117,632.13367 52.41203,-93.48403 c 9.25725,-16.51156 9.85375,-68.91447 -3.25306,-72.59892 l -285.90169,-80.3699 c -13.1068,-3.68446 -28.9159,-0.25219 -39.0317,15.74774 l -25.452,40.25662 c -10.1159,15.99995 -6.2738,31.61342 2.5124,42.01378 l 200.24016,237.02912 c 8.78614,10.40035 89.21662,-72.08284 98.47386,-88.59441 z"
       id="rect4964-0-6"
       inkscape:connector-curvature="0"
       sodipodi:nodetypes="sssssssss"
       inkscape:transform-center-x="104"
       inkscape:transform-center-y="-35.999975" />
    <path
       style="opacity:1;fill:#fff6d5;fill-opacity:1;stroke:none;stroke-width:0;stroke-miterlimit:4;stroke-dasharray:none;stroke-dashoffset:0;stroke-opacity:1"
       d="m -161.43034,614.4929 -52.41203,-93.48403 c -9.25725,-16.51156 -9.85375,-68.91447 3.25306,-72.59892 l 285.901674,-80.3699 c 13.106798,-3.68446 28.915896,-0.25219 39.031746,15.74774 l 25.45199,40.25662 c 10.11586,15.99995 6.27373,31.61342 -2.5124,42.01378 L -62.95648,703.08731 c -8.78614,10.40035 -89.21662,-72.08284 -98.47386,-88.59441 z"
       id="rect4964-0"
       inkscape:connector-curvature="0"
       sodipodi:nodetypes="sssssssss" />
    <ellipse
       style="opacity:1;fill:#fff6d5;fill-opacity:1;stroke:none;stroke-width:0;stroke-miterlimit:4;stroke-dasharray:none;stroke-dashoffset:0;stroke-opacity:1"
       id="path4962"
       cx="350.62808"
       cy="256.30191"
       rx="425.16516"
       ry="322.4407" />
    <rect
       style="opacity:1;fill:#999999;fill-opacity:1;stroke:#000000;stroke-width:11.81857777;stroke-miterlimit:4;stroke-dasharray:none;stroke-dashoffset:0;stroke-opacity:1"
       id="rect4315"
       width="405.24335"
       height="170.41855"
       x="149.00862"
       y="744.65442"
       rx="34.482441"
       ry="27.393082" />
    <rect
       style="opacity:1;fill:#999999;fill-opacity:1;stroke:#000000;stroke-width:15.26865959;stroke-miterlimit:4;stroke-dasharray:none;stroke-dashoffset:0;stroke-opacity:1"
       id="rect4323"
       width="366.40097"
       height="157.20883"
       x="168.42981"
       y="576.7934"
       rx="24.080042"
       ry="65.471626" />
    <rect
       style="opacity:1;fill:#999999;fill-opacity:1;stroke:#000000;stroke-width:10;stroke-miterlimit:4;stroke-dasharray:none;stroke-dashoffset:0;stroke-opacity:1"
       id="rect4880"
       width="136"
       height="104"
       x="283.63031"
       y="468.28604"
       rx="24.08"
       ry="65.471603" />
    <path
       style="opacity:1;fill:#fff6d5;fill-opacity:1;stroke:none;stroke-width:0;stroke-miterlimit:4;stroke-dasharray:none;stroke-dashoffset:0;stroke-opacity:1"
       d="m 956.38716,75.391438 43.69544,97.862102 c 7.7177,17.28485 3.5473,69.52494 -9.84023,72.00247 l -292.02472,54.04305 c -13.3875,2.47753 -28.81906,-2.37787 -37.43831,-19.23127 l -21.68648,-42.40397 c -8.61925,-16.85339 -3.37347,-32.05287 6.32187,-41.61133 l 220.96136,-217.8417 c 9.69535,-9.55845 82.29338,79.895805 90.01107,97.180648 z"
       id="rect4964-3"
       inkscape:connector-curvature="0"
       sodipodi:nodetypes="sssssssss" />
    <path
       style="opacity:1;fill:#e6e6e6;fill-opacity:1;stroke:#000000;stroke-width:10;stroke-miterlimit:4;stroke-dasharray:none;stroke-dashoffset:0;stroke-opacity:1"
       d="M 59.785156,83.126953 C 45.700033,82.952963 48.175069,91.184834 38,108.50977 83.453477,311.20119 210.15192,326.4641 387.95703,332.30664 l -0.008,0.20313 c 1.01757,-0.0321 2.0111,-0.0689 3.02539,-0.10157 1.0144,0.0326 2.0077,0.0694 3.02539,0.10157 l -0.008,-0.20313 c 177.80548,-5.84252 304.5035,-21.10518 349.95703,-223.79687 -14.8001,-25.199904 -2.83671,-31.163284 -54,-20.000004 C 654.95363,289.80041 499.036,281.38152 390.97461,282.50195 282.91323,281.38152 126.99558,289.80035 92,88.509766 76.011474,85.021241 66.187485,83.20604 59.785156,83.126953 Z"
       id="rect4887"
       transform="translate(-39.344308,124.08292)"
       inkscape:connector-curvature="0" />
    <rect
       style="opacity:1;fill:#e6e6e6;fill-opacity:1;stroke:#000000;stroke-width:0;stroke-miterlimit:4;stroke-dasharray:none;stroke-dashoffset:0;stroke-opacity:1"
       id="rect4909"
       width="351"
       height="131.03999"
       x="176.13029"
       y="764.28607"
       rx="36.676735"
       ry="28.488825" />
    <rect
       style="opacity:1;fill:#e6e6e6;fill-opacity:1;stroke:#000000;stroke-width:0;stroke-miterlimit:4;stroke-dasharray:none;stroke-dashoffset:0;stroke-opacity:1"
       id="rect4909-2"
       width="327"
       height="113.03999"
       x="188.13029"
       y="598.76605"
       rx="34.168922"
       ry="24.575525" />
    <rect
       style="opacity:1;fill:#e6e6e6;fill-opacity:1;stroke:#000000;stroke-width:0;stroke-miterlimit:4;stroke-dasharray:none;stroke-dashoffset:0;stroke-opacity:1"
       id="rect4909-8"
       width="97"
       height="52.919998"
       x="303.13031"
       y="491.76605"
       rx="10.135737"
       ry="11.505103" />
    <path
       style="opacity:1;fill:#fff6d5;fill-opacity:1;stroke:none;stroke-width:0;stroke-miterlimit:4;stroke-dasharray:none;stroke-dashoffset:0;stroke-opacity:1"
       d="m 93.65264,-285.52186 103.74339,-26.89968 c 18.32363,-4.75114 69.15348,8.00604 69.3816,21.61897 l 4.97619,296.941614 c 0.22813,13.612916 -7.11383,28.028306 -25.16114,33.739981 l -45.40791,14.370852 c -18.04731,5.711675 -32.16922,-1.97688 -39.99161,-13.120215 L -17.08262,-212.83229 c -7.82237,-11.14335 92.41164,-67.93843 110.73526,-72.68957 z"
       id="rect4964"
       inkscape:connector-curvature="0"
       sodipodi:nodetypes="sssssssss" />
    <path
       style="opacity:1;fill:#fff6d5;fill-opacity:1;stroke:none;stroke-width:0;stroke-miterlimit:4;stroke-dasharray:none;stroke-dashoffset:0;stroke-opacity:1"
       d="m 612.81361,-295.91507 -103.74339,-26.89968 c -18.32363,-4.75114 -69.15348,8.00604 -69.3816,21.61897 l -4.97619,296.9416199 c -0.22813,13.61291 7.11383,28.0283001 25.16114,33.7399801 l 45.40791,14.37085 c 18.04731,5.71168 32.16922,-1.97688 39.99161,-13.12021 L 723.54887,-223.2255 c 7.82237,-11.14335 -92.41164,-67.93843 -110.73526,-72.68957 z"
       id="rect4964-2"
       inkscape:connector-curvature="0"
       sodipodi:nodetypes="sssssssss" />
  </g>
</svg>
